<svg xmlns="http://www.w3.org/2000/svg" viewBox="0 0 457 412.07"><defs><style>.cls-1{fill:#07382f;}.cls-2{fill:#fff;}</style></defs><g id="Layer_2" data-name="Layer 2"><g id="Layer_1-2" data-name="Layer 1"><rect class="cls-1" width="457" height="412.07"/><path class="cls-2" d="M119.31,205.23V128.1c0-18.71-6.32-24.53-21.24-24.53-16.44,0-25.54,13.65-25.54,30.34v71.32H39.65V35.29H72.53V97c4.8-11.12,20-19.47,36.66-19.47,25.55,0,43.25,14.92,43.25,39.7v88Z"/><path class="cls-2" d="M172.67,65.89V35.29h32.88v30.6Zm0,139.34V80.81h32.88V205.23Z"/><path class="cls-2" d="M225.52,205.23V80.81h30.86V95.73C267.25,79,279.9,77.52,293.3,77.52h4.3v33.64a54.92,54.92,0,0,0-9.11-.77c-20.23,0-30.09,10.12-30.09,30.1v64.74Z"/><path class="cls-2" d="M334.27,151.62c1,18.71,11.63,30.85,27.82,30.85,10.62,0,20-5.31,22.25-13.91h33.89c-7.59,25.54-28.07,40-54.62,40-41.48,0-62.22-22.76-62.22-67.78,0-38.44,22-63.22,60.19-63.22S420,102.3,420,151.62Zm51.84-20.74c-.5-18.46-12.64-27.31-25.54-27.31-13.15,0-24,10.11-25.29,27.31Z"/><path class="cls-2" d="M104.08,304.46h26.41V335c0,22.7-13.09,43-43.44,43C55.61,378,43.17,358,43.17,334.81V238.75H71.11v29h59.38v20.08H71.11V332c0,13.54,4.8,21.4,16.37,21.4,11.36,0,16.6-7.64,16.6-21Z"/><path class="cls-2" d="M144,321.49c0-34.06,21.18-56.54,55.24-56.54,33.62,0,54.58,22.27,54.58,56.54,0,34.06-21.18,56.55-54.58,56.55C164.55,378,144,354.9,144,321.49Zm81.22,0c0-21.83-8.73-32.53-26-32.53s-26,10.7-26,32.53,8.73,32.75,26,32.75S225.25,343.32,225.25,321.49Z"/><path class="cls-2" d="M266.08,321.49c0-34.06,21.18-56.54,55.24-56.54,33.62,0,54.58,22.27,54.58,56.54,0,34.06-21.18,56.55-54.58,56.55C286.6,378,266.08,354.9,266.08,321.49Zm81.22,0c0-21.83-8.74-32.53-26-32.53s-26,10.7-26,32.53,8.74,32.75,26,32.75S347.3,343.32,347.3,321.49Z"/><path class="cls-2" d="M390.52,375.2V228.49h28.39V375.2Z"/></g></g></svg>