<svg xmlns="http://www.w3.org/2000/svg" xmlns:xlink="http://www.w3.org/1999/xlink" viewBox="0 0 599.5 130.47"><defs><style>.adcd3436-cbd8-4bd1-92cf-018dd8c57008{fill:url(#a7e9cb1a-fd77-4a46-975c-649d373cf694);}</style><radialGradient id="a7e9cb1a-fd77-4a46-975c-649d373cf694" cx="-1.86" cy="-2.33" r="614.13" gradientUnits="userSpaceOnUse"><stop offset="0" stop-color="#26bbac"/><stop offset="1" stop-color="#adfb69"/></radialGradient></defs><g id="f9de1e41-b52b-44ab-93b8-33c8c4f8408c" data-name="Layer 2"><g id="a97593ca-566f-412c-9f4a-aec8c6ad4604" data-name="Layer 1"><path class="adcd3436-cbd8-4bd1-92cf-018dd8c57008" d="M0,127.94V1.27H20.81v49h3.08a21,21,0,0,1,4.7-6.16,25.19,25.19,0,0,1,8.6-5.06,38.89,38.89,0,0,1,13.48-2,35.74,35.74,0,0,1,18.27,4.61,32.08,32.08,0,0,1,12.4,12.94Q85.78,63,85.77,74.37v53.57H65V76q0-10.86-5.33-16.19T44.52,54.47q-11,0-17.38,7.33T20.81,82.7v45.24Z"/><path class="adcd3436-cbd8-4bd1-92cf-018dd8c57008" d="M114.36,27.14a13.86,13.86,0,0,1-9.68-3.71,12.7,12.7,0,0,1-4.07-9.86,12.7,12.7,0,0,1,4.07-9.86A13.91,13.91,0,0,1,114.36,0a13.74,13.74,0,0,1,9.87,3.71,13,13,0,0,1,3.89,9.86,13,13,0,0,1-3.89,9.86A13.7,13.7,0,0,1,114.36,27.14Zm-10.31,100.8V38.54h20.81v89.4Z"/><path class="adcd3436-cbd8-4bd1-92cf-018dd8c57008" d="M144,127.94V38.54h20.45V48.86h3.07a14.21,14.21,0,0,1,6.7-8.14,23.3,23.3,0,0,1,11.22-2.54h10.86V56.64H185.12q-9.06,0-14.66,4.8t-5.61,14.74v51.76Z"/><path class="adcd3436-cbd8-4bd1-92cf-018dd8c57008" d="M245.19,130.47a47.67,47.67,0,0,1-23.61-5.7,40.2,40.2,0,0,1-15.93-16.1Q200,98.26,200,84.33V82.16q0-14.11,5.6-24.43a39.82,39.82,0,0,1,15.75-16A46.76,46.76,0,0,1,244.65,36q13,0,22.8,5.7a39.28,39.28,0,0,1,15.2,16q5.43,10.31,5.43,24.06v7.42H221q.36,10.5,7.42,16.83a25,25,0,0,0,17.37,6.34q10.13,0,15-4.44a30.45,30.45,0,0,0,7.42-10l17.19,8.87a55.06,55.06,0,0,1-7.33,10.4,39.65,39.65,0,0,1-12.76,9.41Q257.32,130.46,245.19,130.47Zm-24.06-57h45.78a20,20,0,0,0-6.79-14.12q-6.06-5.24-15.65-5.24-10,0-15.92,5.24A23,23,0,0,0,221.13,73.47Z"/><path class="adcd3436-cbd8-4bd1-92cf-018dd8c57008" d="M333.14,127.94q-8.68,0-13.84-5.16t-5.16-14v-53H290.79V38.54h23.35V9.77H335V38.54h25.69v17.2H335v49.58q0,5.43,5.07,5.43h17.91v17.19Z"/><path class="adcd3436-cbd8-4bd1-92cf-018dd8c57008" d="M413.66,130.47a51.08,51.08,0,0,1-24-5.52A41,41,0,0,1,373,109.21Q367,99,367,84.69v-2.9q0-14.3,6.06-24.61a40.28,40.28,0,0,1,16.65-15.74,51.78,51.78,0,0,1,24-5.43,51.24,51.24,0,0,1,23.89,5.43,40.41,40.41,0,0,1,16.56,15.74q6.06,10.32,6.06,24.61v2.9q0,14.3-6.06,24.52A41.13,41.13,0,0,1,437.55,125,50.55,50.55,0,0,1,413.66,130.47Zm0-18.46q11.4,0,18.64-7.33t7.24-20.53V82.34q0-13.22-7.24-20.54t-18.64-7.33q-11.4,0-18.63,7.33t-7.24,20.54v1.81q0,13.2,7.24,20.53T413.66,112Z"/><path class="adcd3436-cbd8-4bd1-92cf-018dd8c57008" d="M517.35,130.47a51,51,0,0,1-24-5.52,41,41,0,0,1-16.65-15.74Q470.66,99,470.67,84.69v-2.9q0-14.3,6.06-24.61a40.28,40.28,0,0,1,16.65-15.74,55.44,55.44,0,0,1,47.86,0A40.54,40.54,0,0,1,557.8,57.18q6.06,10.32,6.06,24.61v2.9q0,14.3-6.06,24.52A41.26,41.26,0,0,1,541.24,125,50.55,50.55,0,0,1,517.35,130.47Zm0-18.46q11.4,0,18.64-7.33t7.24-20.53V82.34q0-13.22-7.24-20.54t-18.64-7.33q-11.4,0-18.64,7.33t-7.23,20.54v1.81q0,13.2,7.23,20.53T517.35,112Z"/><path class="adcd3436-cbd8-4bd1-92cf-018dd8c57008" d="M578.69,127.94V1.27H599.5V127.94Z"/></g></g></svg>